<svg width="188" height="37" viewBox="0 0 188 37" fill="none" xmlns="http://www.w3.org/2000/svg">
<path d="M13.2251 3.9541C19.4896 3.9541 24.1722 7.45409 25.6909 13.1813H18.667C17.5913 10.8904 15.5664 9.80863 13.1618 9.80863C9.23859 9.80863 6.51764 12.7359 6.51764 17.445C6.51764 22.154 9.23859 25.0813 13.1618 25.0813C15.5664 25.0813 17.5913 23.9358 18.667 21.7086H25.6909C24.1722 27.4358 19.4896 30.9358 13.2251 30.9358C5.44191 30.8722 0 25.3358 0 17.3813C0 9.42681 5.44191 3.9541 13.2251 3.9541Z" fill="#404041"/>
<path d="M38.4721 30.9996C32.3341 30.9996 27.7148 26.8632 27.7148 20.1814C27.7148 13.4996 32.4607 9.36328 38.5987 9.36328C44.7366 9.36328 49.4825 13.4996 49.4825 20.1814C49.4825 26.8632 44.6101 30.9996 38.4721 30.9996ZM38.4721 25.3996C40.7501 25.3996 42.9016 23.6814 42.9016 20.1814C42.9016 16.6178 40.8134 14.9633 38.5354 14.9633C36.1941 14.9633 34.1692 16.6178 34.1692 20.1814C34.2325 23.6814 36.1308 25.3996 38.4721 25.3996Z" fill="#404041"/>
<path d="M62.2026 30.9996C56.0646 30.9996 51.4453 26.8632 51.4453 20.1814C51.4453 13.4996 56.1912 9.36328 62.3291 9.36328C68.4671 9.36328 73.2129 13.4996 73.2129 20.1814C73.2129 26.8632 68.3405 30.9996 62.2026 30.9996ZM62.2026 25.3996C64.4806 25.3996 66.632 23.6814 66.632 20.1814C66.632 16.6178 64.5439 14.9633 62.2659 14.9633C59.9246 14.9633 57.8997 16.6178 57.8997 20.1814C57.8997 23.6814 59.8613 25.3996 62.2026 25.3996Z" fill="#404041"/>
<path d="M75.4902 3.9541H81.8813V18.2086L88.2091 9.68135H96.1189L87.4498 20.1813L96.2454 30.6813H88.3357L81.9446 21.8359V30.6813H75.5535V3.9541H75.4902Z" fill="#404041"/>
<path d="M97.6387 4.01757C97.6387 2.04485 99.1573 0.517578 101.435 0.517578C103.713 0.517578 105.232 2.04485 105.232 4.01757C105.232 5.92665 103.713 7.45392 101.435 7.45392C99.1573 7.45392 97.6387 5.92665 97.6387 4.01757ZM98.2715 9.61755H104.663V30.6175H98.2715V9.61755Z" fill="#404041"/>
<path d="M117.571 30.9996C111.433 30.9996 107.004 26.8632 107.004 20.1814C107.004 13.4996 111.37 9.36328 117.571 9.36328C123.646 9.36328 128.012 13.436 128.012 19.8632C128.012 20.436 127.949 21.136 127.886 21.7723H113.395C113.648 24.5087 115.293 25.7814 117.382 25.7814C119.153 25.7814 120.166 24.8905 120.735 23.745H127.569C126.494 27.8178 122.823 30.9996 117.571 30.9996ZM113.458 18.1451H121.495C121.495 15.8542 119.723 14.5178 117.571 14.5178C115.42 14.5178 113.838 15.7905 113.458 18.1451Z" fill="#404041"/>
<path d="M157.563 30.9996C151.426 30.9996 146.996 26.8632 146.996 20.1814C146.996 13.4996 151.362 9.36328 157.563 9.36328C163.638 9.36328 168.004 13.436 168.004 19.8632C168.004 20.436 167.941 21.136 167.878 21.7723H153.387C153.64 24.5087 155.285 25.7814 157.374 25.7814C159.145 25.7814 160.158 24.8905 160.727 23.745H167.561C166.486 27.8178 162.752 30.9996 157.563 30.9996ZM153.387 18.1451H161.423C161.423 15.8542 159.652 14.5178 157.5 14.5178C155.412 14.5178 153.767 15.7905 153.387 18.1451Z" fill="#404041"/>
<path d="M179.583 30.9996C174.015 30.9996 170.281 27.8814 169.965 23.8087H176.293C176.419 25.2723 177.748 26.2269 179.52 26.2269C181.165 26.2269 182.051 25.4632 182.051 24.5087C182.051 21.136 170.661 23.5541 170.661 15.8542C170.661 12.2905 173.698 9.36328 179.14 9.36328C184.519 9.36328 187.556 12.3542 187.936 16.4905H181.988C181.798 15.0905 180.722 14.136 178.887 14.136C177.368 14.136 176.546 14.7087 176.546 15.7269C176.546 19.0996 187.872 16.6814 187.999 24.5723C188.062 28.1996 184.835 30.9996 179.583 30.9996Z" fill="#404041"/>
<path d="M134.656 10H128.012L134.086 21.3272H140.731L134.656 10Z" fill="#0056A7"/>
<path d="M133.961 21.0084L134.151 21.3266H140.795L136.429 13.3721L133.961 21.0084Z" fill="#2E3191"/>
<path d="M146.108 0.454102L134.148 21.3268H140.793L152.752 0.454102H146.108Z" fill="#0056A7"/>
<path d="M134.148 24.4443H140.603V30.9989H134.148V24.4443Z" fill="#0056A7"/>
</svg>
