<svg width="116" height="28" viewBox="0 0 116 28" fill="none" xmlns="http://www.w3.org/2000/svg">
<path d="M115.886 -0.253906H0V28.254H115.886V-0.253906Z" fill="#8F90A6"/>
<path fill-rule="evenodd" clip-rule="evenodd" d="M46.2961 6.46795L40.637 16.0672C40.5211 16.2796 39.4009 17.9214 37.1218 18.0759C34.862 18.1724 32.9499 16.1058 32.9885 13.8847C33.0658 11.6828 34.7654 9.9059 37.0252 9.86728C38.9566 9.9059 40.3666 11.3352 40.3473 11.3545C40.7529 11.7021 41.0233 11.9532 41.3323 12.3975L43.3989 8.90156C43.032 8.53459 42.8775 8.36076 42.4139 8.03241C41.2357 7.00875 39.5168 6.19755 37.1025 6.1203C34.7848 6.08167 32.4284 7.00875 30.6322 9.26853C29.5119 10.6978 29.0677 11.9919 29.0098 13.8847C29.0291 16.1058 29.8596 17.902 31.0764 19.1961C33.1623 21.3014 35.6732 21.8035 37.0059 21.8035C38.9373 21.7263 40.3473 21.2627 41.68 20.4129C42.1049 20.1232 42.5491 19.7562 43.032 19.2734H46.6244V21.4559H50.3135V6.46795H46.2961ZM46.6631 16.1444H44.693L46.6631 12.7451V16.1444Z" fill="white"/>
<path fill-rule="evenodd" clip-rule="evenodd" d="M53.9636 21.5529V10.0223H51.0664V6.52637H60.8008V10.0223H57.8071V21.5529H53.9636Z" fill="white"/>
<path fill-rule="evenodd" clip-rule="evenodd" d="M69.2409 15.7972H65.3008V21.5529H61.4766V6.52637H65.3008V12.2241H69.2409V6.52637H73.1038V21.5529H69.2409V15.7972Z" fill="white"/>
<path fill-rule="evenodd" clip-rule="evenodd" d="M104.972 6.52626V14.87L99.2165 6.52626H95.7592V11.6059C95.3729 10.4471 94.6776 9.38478 93.7119 8.47701C92.1861 7.04775 90.1967 6.25586 88.1107 6.25586C85.8896 6.25586 83.9388 6.9898 82.3937 8.45769C80.8486 9.90627 80.018 11.8184 80.018 13.885C80.018 15.5267 80.443 16.9753 81.2542 18.2307H78.3184V6.52626H74.4941V21.5528H82.7993V19.969C84.2479 21.2052 86.0441 21.8232 88.0914 21.8232C90.274 21.8232 92.3599 20.9927 93.8664 19.4862C94.7549 18.617 95.3729 17.5741 95.7592 16.4345V21.5528H99.6028V13.1897L105.455 21.5528H108.835V6.52626H104.972ZM88.0721 18.0955C85.9089 18.0955 83.9388 16.28 83.9388 13.9043C83.9388 11.7025 85.7737 9.94489 88.1107 9.94489C90.3126 9.94489 92.1474 11.7025 92.1474 13.9043C92.1668 16.3766 90.3319 18.0955 88.0721 18.0955Z" fill="white"/>
<path fill-rule="evenodd" clip-rule="evenodd" d="M29.0288 9.7703V6.44824H20.4918V12.6288C20.2407 10.8326 19.4875 9.38402 18.3093 8.30241C16.6676 6.81521 14.9293 6.50618 12.4377 6.50618H7.06836V21.5327H12.9592C15.1611 21.5327 16.6483 21.243 18.3286 19.6786C19.5068 18.5583 20.2407 17.1484 20.4918 15.4873V21.4555H29.0288V18.23H24.2581V15.4487H28.3914V12.2232H24.2581V9.78962H29.0288V9.7703ZM12.4571 18.2493H10.9119V9.75099H12.4377C15.2576 9.75099 16.7835 11.2768 16.7835 13.9808C16.7835 16.9359 15.3928 18.2493 12.4571 18.2493Z" fill="white"/>
</svg>
