<svg width="142" height="31" viewBox="0 0 142 31" fill="none" xmlns="http://www.w3.org/2000/svg">
<path d="M141.122 19.0175C140.913 17.9619 139.964 17.2009 138.951 17.277C137.818 17.3628 136.964 18.2031 136.909 19.3074C136.866 19.8498 137.03 20.3885 137.368 20.8146C137.707 21.2407 138.194 21.5226 138.732 21.6033C139.744 21.7733 140.751 21.1176 141.074 20.0926C141.109 19.9793 141.074 19.8417 141.184 19.751V19.1859C141.122 19.1454 141.134 19.0774 141.122 19.0175ZM139.033 21.2843C138.548 21.2843 138.083 21.0916 137.74 20.7485C137.397 20.4053 137.204 19.9399 137.204 19.4547C137.204 18.9694 137.397 18.5041 137.74 18.161C138.083 17.8178 138.548 17.6251 139.033 17.6251C139.519 17.6251 139.984 17.8178 140.327 18.161C140.67 18.5041 140.863 18.9694 140.863 19.4547C140.863 19.9399 140.67 20.4053 140.327 20.7485C139.984 21.0916 139.519 21.2843 139.033 21.2843Z" fill="#8F90A6"/>
<path d="M46.4615 14.5328C44.8423 13.4091 43.0175 12.9509 41.0778 12.925C38.7041 12.8942 36.3272 12.925 33.9536 12.925C33.395 12.925 33.293 13.0254 33.293 13.5727V21.3446C33.293 23.9449 33.293 26.5452 33.293 29.1456C33.293 29.6491 33.4209 29.7738 33.9212 29.7738C36.2236 29.7738 38.5255 29.7738 40.8268 29.7738C41.7164 29.7772 42.603 29.6734 43.4677 29.4646C46.1247 28.8056 48.1098 27.3273 49.1541 24.7399C49.7742 23.2049 49.8892 21.5971 49.6755 19.9715C49.3775 17.7079 48.3591 15.854 46.4615 14.5328ZM43.4725 24.2477C42.7261 24.9876 41.7967 25.2855 40.7718 25.3163C40.0302 25.339 39.287 25.3163 38.5439 25.3163C38.3674 25.3163 38.3123 25.2677 38.3123 25.088C38.3188 22.5816 38.3188 20.0751 38.3123 17.5687C38.3123 17.4068 38.3593 17.355 38.5244 17.3582C38.9535 17.3696 39.3826 17.3582 39.8116 17.3582C40.5435 17.3582 41.277 17.3242 41.9942 17.5201C43.5502 17.9265 44.5153 19.1198 44.6496 20.8118C44.7549 22.1266 44.4311 23.2956 43.4725 24.2461V24.2477Z" fill="#8F90A6"/>
<path d="M83.0194 17.4142C81.1687 16.9706 79.5237 17.4142 78.1231 18.7095C77.9142 18.9038 77.7345 19.1273 77.5321 19.3475C77.1063 18.261 76.3404 17.5907 75.2167 17.3738C73.3013 17.0062 71.6239 17.5033 70.1763 18.831C70.1634 18.8116 70.1537 18.8051 70.1537 18.797C70.1537 18.5671 70.1537 18.3371 70.1537 18.1072C70.1537 17.7024 70.0079 17.5551 69.6096 17.5535C68.4806 17.5535 67.3509 17.5535 66.2208 17.5535C65.8192 17.5535 65.6719 17.6943 65.6719 18.1024C65.6719 21.8102 65.6719 25.5175 65.6719 29.2243C65.6719 29.6274 65.8208 29.7651 66.2289 29.7651H69.5238C70.0306 29.7651 70.1537 29.6436 70.1537 29.1417C70.1537 26.9289 70.1537 24.716 70.1537 22.5032C70.1537 22.3818 70.1261 22.2587 70.2249 22.1486C70.5714 21.7568 70.9681 21.4297 71.4943 21.339C72.5419 21.148 73.3256 21.5301 73.3094 22.7963C73.2835 24.9271 73.3094 27.0578 73.3094 29.1886C73.3094 29.6533 73.4373 29.778 73.9068 29.778H77.171C77.6649 29.778 77.7782 29.6647 77.7782 29.1725V22.534C77.7677 22.4623 77.7721 22.3892 77.791 22.3193C77.8099 22.2494 77.8431 22.1841 77.8883 22.1276C78.1568 21.819 78.4948 21.5787 78.8744 21.4265C80.1017 20.9715 80.9679 21.5625 80.9793 22.8594V29.2502C80.9793 29.6291 81.1137 29.7796 81.465 29.7813C82.6265 29.7813 83.7879 29.7813 84.9494 29.7813C85.2732 29.7813 85.4352 29.6193 85.4352 29.2955C85.4352 26.3924 85.4513 23.4893 85.4352 20.5861C85.3979 18.954 84.5058 17.7721 83.0194 17.4142Z" fill="#8F90A6"/>
<path d="M26.3642 6.82881L20.8315 1.19257C20.737 1.08949 20.6211 1.00838 20.4918 0.954949C20.3626 0.901518 20.2232 0.877065 20.0835 0.883311C19.6609 0.852547 19.4018 1.14723 19.1298 1.42572L14.92 5.72294C13.5308 7.14131 12.14 8.55859 10.7475 9.97481C10.6196 10.1027 10.5856 10.174 10.7362 10.3197C13.8136 13.45 16.8868 16.5804 19.9556 19.7107C20.1693 19.9293 20.2503 19.8046 20.3863 19.6654C23.209 16.7833 26.0317 13.9034 28.8544 11.0256C29.3822 10.4865 29.379 9.89223 28.8431 9.35467C28.0141 8.51757 27.1915 7.66914 26.3642 6.82881ZM20.1013 12.5671C19.4662 12.5615 18.8593 12.3038 18.4141 11.8508C17.969 11.3977 17.7221 10.7864 17.7276 10.1513C17.7332 9.51618 17.9909 8.90929 18.4439 8.46414C18.897 8.01899 19.5083 7.77204 20.1434 7.77763C20.4579 7.78039 20.7687 7.84507 21.0582 7.96797C21.3477 8.09087 21.6101 8.26958 21.8306 8.49391C22.051 8.71823 22.225 8.98378 22.3428 9.27537C22.4606 9.56697 22.5198 9.87892 22.5171 10.1934C22.5143 10.5079 22.4496 10.8187 22.3267 11.1082C22.2038 11.3977 22.0251 11.6601 21.8008 11.8805C21.5765 12.101 21.3109 12.275 21.0193 12.3928C20.7277 12.5106 20.4158 12.5698 20.1013 12.5671V12.5671Z" fill="#8F90A6"/>
<path d="M19.4011 20.2982C19.189 20.0991 18.9931 19.8789 18.789 19.67C15.9394 16.7706 13.0907 13.8691 10.2432 10.9655C10.0602 10.7776 9.96633 10.7501 9.75746 10.9557C7.94402 12.821 6.11601 14.6798 4.29285 16.5321C3.27603 17.5683 2.25435 18.6013 1.244 19.6457C0.758257 20.1428 0.774448 20.7257 1.2521 21.226C1.46906 21.4527 1.69574 21.668 1.91594 21.8931C4.37812 24.4092 6.84192 26.9259 9.30734 29.4431C9.40631 29.5452 9.52525 29.6258 9.65674 29.6798C9.78823 29.7338 9.92944 29.7602 10.0716 29.7573C10.2169 29.7496 10.3594 29.7132 10.4906 29.6501C10.6217 29.587 10.7391 29.4985 10.8358 29.3897C12.1689 28.0307 13.5025 26.6733 14.8367 25.3176C16.3609 23.7664 17.8861 22.2169 19.4124 20.669C19.5679 20.5119 19.5419 20.4326 19.4011 20.2982ZM6.57746 22.7755C6.10534 22.7825 5.64175 22.6493 5.24544 22.3926C4.84913 22.1359 4.53792 21.7674 4.35126 21.3336C4.16459 20.8999 4.11086 20.4206 4.19687 19.9563C4.28289 19.492 4.50477 19.0637 4.83442 18.7257C5.16407 18.3876 5.58664 18.155 6.0486 18.0574C6.51057 17.9597 6.99112 18.0013 7.4294 18.177C7.86767 18.3527 8.24393 18.6545 8.5105 19.0443C8.77708 19.434 8.92198 19.8941 8.92684 20.3662C8.93663 20.6804 8.88303 20.9933 8.76923 21.2862C8.65543 21.5792 8.48377 21.8462 8.26449 22.0714C8.04522 22.2966 7.78282 22.4753 7.49297 22.5968C7.20312 22.7183 6.89176 22.7802 6.57746 22.7787V22.7755ZM13.4831 22.8888C12.8615 22.8753 12.2701 22.618 11.8364 22.1725C11.4027 21.7269 11.1614 21.1288 11.1645 20.5071C11.1738 20.0467 11.3189 19.5994 11.5818 19.2213C11.8446 18.8433 12.2134 18.5514 12.6417 18.3823C13.07 18.2133 13.5387 18.1746 13.9889 18.2713C14.4391 18.3679 14.8506 18.5955 15.1718 18.9255C15.493 19.2554 15.7095 19.6729 15.794 20.1255C15.8785 20.5782 15.8273 21.0457 15.6468 21.4693C15.4663 21.8929 15.1646 22.2537 14.7796 22.5062C14.3946 22.7588 13.9435 22.8919 13.4831 22.8888V22.8888Z" fill="#8F90A6"/>
<path d="M107.2 20.6544C107.14 18.9866 106.092 17.7172 104.467 17.3934C102.477 16.9967 100.67 17.3934 99.1235 18.9008C99.1235 18.5964 99.1235 18.3503 99.1235 18.1042C99.1235 17.6848 98.9988 17.5569 98.5875 17.5569C97.4671 17.5569 96.3472 17.5569 95.2278 17.5569C94.8036 17.5569 94.6562 17.6978 94.6562 18.1123C94.6562 21.8093 94.6562 25.5064 94.6562 29.2034C94.6562 29.6244 94.8003 29.7685 95.2181 29.7685H98.5454C99.0004 29.7685 99.1235 29.6471 99.1235 29.1986C99.1235 27.0581 99.1397 24.9176 99.1121 22.777C99.0956 22.5766 99.1343 22.3754 99.2239 22.1953C99.3135 22.0152 99.4507 21.8631 99.6205 21.7554C99.7128 21.6869 99.8084 21.6231 99.9071 21.5643C101.364 20.7337 102.75 21.519 102.75 23.1835V29.1371C102.75 29.6633 102.862 29.7718 103.398 29.7718H106.664C107.091 29.7718 107.219 29.6438 107.219 29.2099C107.219 27.6231 107.219 26.0358 107.219 24.448C107.218 23.1818 107.247 21.9173 107.2 20.6544Z" fill="#8F90A6"/>
<path d="M57.7637 17.2023C54.2825 17.0404 51.2871 19.8027 51.164 23.4117C51.0491 26.7747 53.4988 29.8009 57.0529 30.0778C60.5211 30.3465 63.5829 27.6247 63.7998 24.061C64.0217 20.4034 61.2918 17.3658 57.7637 17.2023ZM59.6305 23.6206C59.5642 24.8722 58.5878 25.7886 57.3799 25.7255C56.9477 25.7121 56.5292 25.5706 56.1774 25.3191C55.8256 25.0676 55.5564 24.7173 55.4039 24.3127C55.2513 23.908 55.2224 23.4672 55.3206 23.0461C55.4189 22.6249 55.6399 22.2424 55.9558 21.9471C56.2716 21.6517 56.668 21.4567 57.0948 21.3868C57.5215 21.3169 57.9594 21.3753 58.353 21.5545C58.7465 21.7337 59.078 22.0258 59.3055 22.3936C59.5329 22.7614 59.646 23.1884 59.6305 23.6206Z" fill="#8F90A6"/>
<path d="M114.648 17.2661C111.429 17.6531 109.083 20.3781 109.083 23.7135C109.073 24.2662 109.143 24.8174 109.289 25.3505C110.098 28.5483 113.382 30.6515 116.55 30.0006C117.436 29.8243 118.275 29.4636 119.013 28.942C119.75 28.4204 120.37 27.7496 120.831 26.973C121.293 26.1965 121.586 25.3316 121.691 24.4344C121.796 23.5373 121.712 22.6281 121.443 21.7657C120.579 18.903 117.857 16.8807 114.648 17.2661ZM115.394 25.7666C114.823 25.7526 114.279 25.5162 113.88 25.1076C113.48 24.699 113.256 24.1506 113.254 23.579C113.253 23.0074 113.474 22.4578 113.872 22.0471C114.269 21.6365 114.812 21.3973 115.383 21.3803C115.954 21.3943 116.498 21.6307 116.898 22.0393C117.297 22.4479 117.522 22.9963 117.523 23.5679C117.525 24.1395 117.303 24.6891 116.905 25.0998C116.508 25.5104 115.966 25.7497 115.394 25.7666V25.7666Z" fill="#8F90A6"/>
<path d="M134.507 22.6041C133.631 22.1766 132.684 22.0196 131.732 21.8803C131.102 21.788 130.461 21.7573 129.852 21.5468C129.69 21.4885 129.517 21.4075 129.505 21.1889C129.503 21.0941 129.53 21.0007 129.582 20.9214C129.634 20.8421 129.709 20.7806 129.797 20.7453C130.048 20.6197 130.325 20.5543 130.606 20.5542C131.776 20.496 132.93 20.8388 133.879 21.5257C134.193 21.7411 134.415 21.6876 134.603 21.3541C134.985 20.6838 135.362 20.0118 135.736 19.3383C135.916 19.0144 135.861 18.8201 135.551 18.6291C134.251 17.8177 132.762 17.358 131.23 17.2949C129.923 17.2334 128.639 17.316 127.422 17.8616C126.087 18.4623 125.254 19.4387 125.216 20.9606C125.176 22.5701 125.9 23.7132 127.365 24.3884C128.286 24.8126 129.276 24.981 130.266 25.1413C130.874 25.24 131.491 25.3032 132.07 25.5218C132.308 25.6141 132.546 25.7404 132.528 26.048C132.511 26.3556 132.264 26.4334 132.043 26.5127C131.613 26.6503 131.16 26.7021 130.71 26.6649C129.415 26.5953 128.262 26.0933 127.159 25.4522C126.771 25.2255 126.594 25.2627 126.366 25.6481C125.945 26.3562 125.526 27.0659 125.109 27.7772C124.876 28.1755 124.914 28.3617 125.305 28.6046C126.751 29.4819 128.394 29.9829 130.083 30.0619C131.379 30.0878 132.36 30.0036 133.31 29.7186C135.198 29.1519 136.261 27.9375 136.431 26.1565C136.591 24.5341 135.917 23.2938 134.507 22.6041Z" fill="#8F90A6"/>
<path d="M91.6764 17.5569C90.5894 17.5569 89.5019 17.5569 88.4138 17.5569C87.8763 17.5569 87.75 17.6816 87.75 18.2175V29.0204C87.75 29.6681 87.8439 29.7701 88.4835 29.7701H91.6861C92.1006 29.7701 92.2528 29.6211 92.2545 29.205C92.2545 25.508 92.2545 21.8125 92.2545 18.1187C92.2496 17.7074 92.0942 17.5569 91.6764 17.5569Z" fill="#8F90A6"/>
<path d="M122.839 11.6603C122.198 11.7596 121.622 12.1063 121.234 12.6258C120.846 13.1454 120.678 13.7963 120.765 14.4388C120.917 15.4329 121.66 16.1567 122.771 16.3461C123.027 16.3898 122.996 16.4757 122.92 16.6457C122.785 16.942 122.566 17.1921 122.29 17.3646C122.251 17.3819 122.217 17.4076 122.19 17.4399C122.163 17.4722 122.143 17.5102 122.132 17.551C122.122 17.5919 122.121 17.6347 122.129 17.6761C122.137 17.7175 122.154 17.7566 122.18 17.7904C122.607 18.451 122.525 18.4834 123.2 18.1498L123.284 18.1094C124.803 17.282 125.722 16.0612 125.81 14.5942C125.818 12.6286 124.451 11.4207 122.839 11.6603Z" fill="#8F90A6"/>
<path d="M90.1202 11.568C89.612 11.5583 89.1124 11.7002 88.6852 11.9755C88.2579 12.2508 87.9222 12.647 87.721 13.1137C87.5197 13.5805 87.4619 14.0965 87.555 14.5962C87.6481 15.0959 87.8878 15.5566 88.2437 15.9195C88.5995 16.2824 89.0553 16.5312 89.5531 16.6342C90.0508 16.7371 90.5679 16.6896 91.0385 16.4976C91.5091 16.3056 91.912 15.9779 92.1956 15.5561C92.4793 15.1344 92.631 14.6377 92.6315 14.1295C92.6351 13.7963 92.573 13.4657 92.4487 13.1565C92.3244 12.8474 92.1403 12.5658 91.9071 12.3279C91.6738 12.09 91.3959 11.9004 91.0893 11.77C90.7827 11.6396 90.4533 11.5709 90.1202 11.568V11.568Z" fill="#8F90A6"/>
<path d="M20.7419 26.8737C20.4991 26.9012 20.1671 26.6665 20.023 27.0826C19.8611 27.523 19.6911 27.9569 19.5033 28.4459C19.3495 28.0379 19.2135 27.68 19.0775 27.3222C18.8945 26.8365 18.8945 26.8527 18.3683 26.8575C18.1772 26.8575 18.1141 26.9142 18.1173 27.1069C18.127 27.8063 18.1319 28.5058 18.1173 29.2118C18.1173 29.466 18.2371 29.4595 18.4233 29.4708C18.6484 29.4838 18.6775 29.3834 18.6743 29.1956C18.663 28.726 18.6743 28.2565 18.6743 27.7869C18.9053 28.2559 19.1122 28.7363 19.2944 29.2263C19.3333 29.3235 19.3333 29.4595 19.4968 29.466C19.6603 29.4724 19.6814 29.3251 19.7235 29.2166C19.9129 28.7309 20.0959 28.2548 20.2805 27.7723C20.3223 28.2515 20.3353 28.7327 20.3193 29.2134C20.3193 29.4303 20.3987 29.4757 20.5946 29.4692C20.7905 29.4627 20.9087 29.4692 20.9022 29.215C20.8844 28.5463 20.9022 27.8792 20.8909 27.2105C20.8844 27.0826 20.988 26.8462 20.7419 26.8737Z" fill="#8F90A6"/>
<path d="M17.5934 26.8559C17.0704 26.8705 16.5474 26.8673 16.026 26.8559C15.8366 26.8559 15.7734 26.9078 15.7734 27.1021C15.7734 27.2964 15.8236 27.3967 16.0341 27.3708C16.1167 27.3595 16.196 27.3708 16.2851 27.3708C16.4632 27.3514 16.5247 27.4259 16.5166 27.6024C16.5037 27.8728 16.5166 28.1448 16.5166 28.4119C16.5166 28.6791 16.528 28.9754 16.5166 29.2571C16.5037 29.5049 16.6785 29.4482 16.8081 29.4531C16.9376 29.4579 17.0979 29.4838 17.0898 29.2458C17.0752 28.7973 17.0898 28.3488 17.0898 27.8987C17.0898 27.3935 17.0898 27.3838 17.6063 27.3725C17.7957 27.3725 17.8314 27.2915 17.8281 27.1263C17.8249 26.9612 17.8168 26.8511 17.5934 26.8559Z" fill="#8F90A6"/>
<path d="M139.987 18.7649C139.901 18.412 139.589 18.2128 139.113 18.2112C138.883 18.2112 138.651 18.2112 138.421 18.2112C138.277 18.2112 138.219 18.2533 138.219 18.4071C138.219 19.1066 138.219 19.806 138.219 20.512C138.219 20.6221 138.219 20.716 138.381 20.7144C138.543 20.7128 138.596 20.6787 138.586 20.5217C138.577 20.3551 138.577 20.188 138.586 20.0214C138.594 19.921 138.517 19.7672 138.693 19.7396C138.834 19.7186 138.978 19.7073 139.072 19.8757C139.181 20.0764 139.331 20.2562 139.438 20.4585C139.564 20.7014 139.736 20.7727 140.018 20.6674L139.42 19.7429C139.908 19.5049 140.089 19.1875 139.987 18.7649ZM138.946 19.3931C138.547 19.4271 138.552 19.2183 138.581 19.011C138.581 18.4799 138.526 18.535 138.999 18.5253C139.433 18.5253 139.631 18.6564 139.637 18.9495C139.644 19.2426 139.436 19.3527 138.946 19.3931Z" fill="#8F90A6"/>
</svg>
