<svg width="124" height="31" viewBox="0 0 124 31" fill="none" xmlns="http://www.w3.org/2000/svg">
<g clip-path="url(#clip0_188_5225)">
<path d="M94.43 14.2382H91.422C90.6972 14.2382 90.1419 14.4293 89.5677 15.1245C88.9934 15.8197 85.3188 20.2603 85.3188 20.2603V14.2382H81.1445V29.6283C81.1455 29.8599 81.2337 30.0816 81.3898 30.2454C81.5459 30.4091 81.7573 30.5016 81.9781 30.5026H85.315V23.126L88.9947 29.1573C89.5436 30.0582 90.0876 30.5026 91.3386 30.5026H94.7665L88.9137 20.9064L94.43 14.2382Z" fill="#8F90A6"/>
<path d="M76.7857 14.2382H67.4961V29.0459C67.4961 29.8565 68.255 30.5053 69.0621 30.5053H76.7857C77.0069 30.5046 77.2189 30.4121 77.3753 30.248C77.5317 30.084 77.6199 29.8616 77.6205 29.6296V27.5268H72.2914C72.1248 27.525 71.9655 27.4543 71.8483 27.3301C71.731 27.2059 71.6653 27.0382 71.6653 26.8634V23.4418H76.4151V20.4712H71.6653V17.2167H77.6205V15.1205C77.6199 14.8885 77.5317 14.6662 77.3753 14.5021C77.2189 14.338 77.0069 14.2456 76.7857 14.2449" fill="#8F90A6"/>
<path d="M106.135 14.2382H96.8438V29.0459C96.8438 29.8565 97.6027 30.5053 98.4097 30.5053H106.135C106.356 30.5046 106.568 30.412 106.724 30.2479C106.88 30.0838 106.968 29.8615 106.968 29.6296V27.5268H101.639C101.473 27.5247 101.314 27.4538 101.197 27.3297C101.08 27.2055 101.014 27.038 101.014 26.8634V23.4418H105.764V20.4712H101.014V17.2167H106.968V15.1205C106.968 14.8886 106.88 14.6663 106.724 14.5022C106.568 14.3381 106.356 14.2456 106.135 14.2449" fill="#8F90A6"/>
<path d="M47.0063 14.2382H42.832V29.6283C42.8334 29.86 42.9218 30.0818 43.0781 30.2455C43.2344 30.4092 43.446 30.5016 43.6669 30.5026H47.0038L47.0063 14.2382Z" fill="#8F90A6"/>
<path d="M38.2023 14.2382H28.9102V29.0459C28.9102 29.891 29.6754 30.5053 30.4774 30.5053H38.2023C38.4233 30.5042 38.6349 30.4116 38.7911 30.2476C38.9472 30.0835 39.0352 29.8614 39.0359 29.6296V27.5268H33.7042C33.5378 27.5247 33.3789 27.4538 33.2619 27.3297C33.1449 27.2055 33.0793 27.038 33.0793 26.8634V23.4418H37.8279V20.4712H33.0819V17.2167H39.0359V15.1205C39.0352 14.8887 38.9472 14.6666 38.7911 14.5026C38.6349 14.3386 38.4233 14.2459 38.2023 14.2449" fill="#8F90A6"/>
<path d="M24.6972 14.2382H20.5229V20.4739H16.8799V14.2382H12.0391V14.8777C12.2412 14.969 12.4128 15.1216 12.5315 15.316C12.6503 15.5103 12.711 15.7375 12.7057 15.9683V30.5H16.8799V23.4444H20.528V30.5H24.7022L24.6972 14.2382Z" fill="#8F90A6"/>
<path d="M63.2834 14.2382V29.6283C63.2824 29.8599 63.1943 30.0816 63.0382 30.2454C62.8821 30.4091 62.6706 30.5016 62.4499 30.5026H59.8897L54.2582 21.1823C54.3359 21.7599 54.3748 22.3424 54.3746 22.9257V30.5026H51.2578V14.2382H53.2817C54.3139 14.2382 55.0652 14.6853 55.6054 15.5769C56.0645 16.3331 60.3223 23.3608 60.3223 23.3608C60.3223 23.3608 60.1692 22.8819 60.1692 21.5989V14.2382H63.2834Z" fill="#8F90A6"/>
<path d="M123.181 14.2382V14.8777C122.982 14.9725 122.813 15.1261 122.695 15.3198C122.578 15.5134 122.517 15.7388 122.519 15.9683V29.6256C122.519 29.8568 122.432 30.0786 122.277 30.2425C122.121 30.4063 121.91 30.4989 121.69 30.5H119.133L113.5 21.1797C113.578 21.7572 113.617 22.3398 113.617 22.923V30.5H110.5V14.2382H112.524C113.555 14.2382 114.307 14.6853 114.848 15.5769C115.307 16.3331 119.563 23.3608 119.563 23.3608C119.563 23.3608 119.411 22.8819 119.411 21.5989V14.2382H123.181Z" fill="#8F90A6"/>
<path d="M4.26985 20.1591C4.22703 20.2001 4.17208 20.2244 4.1142 20.228C4.05632 20.2316 3.99903 20.2142 3.95191 20.1788C3.9048 20.1433 3.87071 20.092 3.85536 20.0334C3.84002 19.9747 3.84434 19.9123 3.86761 19.8566C3.98145 19.4958 6.07743 12.7228 6.07743 12.7228L0.294195 8.31542C0.244068 8.28498 0.205419 8.23742 0.184703 8.18069C0.163987 8.12395 0.162459 8.06148 0.180375 8.00371C0.198292 7.94594 0.234567 7.89636 0.28314 7.86327C0.331713 7.83017 0.389643 7.81556 0.447251 7.82188H7.59534C7.59534 7.82188 9.69385 1.05556 9.8039 0.692035C9.81551 0.632051 9.84654 0.578123 9.89172 0.539388C9.9369 0.500653 9.99347 0.479492 10.0518 0.479492C10.1102 0.479492 10.1667 0.500653 10.2119 0.539388C10.2571 0.578123 10.2881 0.632051 10.2997 0.692035C10.4111 1.05423 12.5096 7.82055 12.5096 7.82055C12.5096 7.82055 19.2934 7.82055 19.6564 7.82055C19.714 7.81424 19.7719 7.82885 19.8205 7.86194C19.8691 7.89504 19.9054 7.94461 19.9233 8.00238C19.9412 8.06016 19.9397 8.12263 19.9189 8.17936C19.8982 8.23609 19.8596 8.28365 19.8095 8.31409L16.36 10.945H12.2794L11.0144 6.87592L9.74951 10.945H5.67645L8.97917 13.4658L7.71424 17.5349L4.26985 20.1591Z" fill="#8F90A6"/>
</g>
<defs>
<clipPath id="clip0_188_5225">
<rect width="123" height="30" fill="white" transform="translate(0.183594 0.5)"/>
</clipPath>
</defs>
</svg>
