<svg width="68" height="21" viewBox="0 0 68 21" fill="none" xmlns="http://www.w3.org/2000/svg">
<path d="M61.9162 0.5C50.2274 0.502653 47.2627 6.77321 46.7853 11.0305C46.2437 15.8103 49.7249 20.5 58.3065 20.5C61.919 20.5 64.2807 19.9032 65.1182 19.6512C65.2223 19.6201 65.3155 19.5628 65.3878 19.4852C65.4601 19.4076 65.5087 19.3128 65.5286 19.2109L66.0116 16.7971C66.0282 16.7141 66.0219 16.6285 65.9934 16.5486C65.9648 16.4686 65.9148 16.3971 65.8485 16.341C65.7821 16.2848 65.7015 16.246 65.6146 16.2283C65.5277 16.2107 65.4375 16.2147 65.3527 16.2401C64.4147 16.5212 62.7565 16.9085 60.6487 16.9085C56.5478 16.9085 53.5858 14.569 53.9627 10.5424C54.3256 6.64324 57.0922 3.67241 60.9 3.67241C63.1892 3.67241 64.2025 4.813 64.1272 6.33289V6.42042C64.1238 6.48605 64.1344 6.55166 64.1583 6.6133C64.1823 6.67495 64.2191 6.73136 64.2665 6.77917C64.314 6.82697 64.3711 6.86518 64.4344 6.8915C64.4978 6.91783 64.5661 6.93172 64.6353 6.93236H66.1902C66.4303 6.93236 66.6369 6.77321 66.6927 6.55305L67.7815 1.88462C67.8161 1.74237 67.7919 1.59294 67.714 1.46711C67.6361 1.34127 67.5104 1.24861 67.3627 1.20822C65.5906 0.73772 63.759 0.50032 61.919 0.502654L61.9162 0.5ZM5.64442 0.807693C5.51773 0.807753 5.39483 0.848747 5.29591 0.923942C5.19698 0.999138 5.12791 1.10406 5.10004 1.22149L4.79854 2.50531C4.76938 2.63161 4.79028 2.7637 4.85725 2.87627C4.92421 2.98884 5.03253 3.07398 5.16146 3.11538L5.25358 3.14191C5.83425 3.35942 6.50984 3.84748 6.22508 5.126L4.01408 14.7281C3.4362 17.3462 2.50099 17.8846 1.61324 17.9801H1.58532C1.46755 17.9911 1.35649 18.0373 1.26818 18.1122C1.17986 18.187 1.11887 18.2866 1.09399 18.3966L0.809239 19.6273C0.792161 19.7016 0.792782 19.7785 0.811057 19.8525C0.829333 19.9264 0.864798 19.9956 0.914855 20.0548C0.964912 20.1141 1.02829 20.162 1.10035 20.1949C1.1724 20.2279 1.25131 20.2451 1.33128 20.2454H11.0658C11.3031 20.2454 11.5097 20.0862 11.56 19.8687L11.895 18.4284C11.9207 18.3154 11.9034 18.1974 11.8462 18.0954C11.7889 17.9934 11.6954 17.914 11.5823 17.8714L11.5209 17.8448C11.0268 17.6591 10.354 17.2507 10.5271 16.492L11.6577 11.5849C15.5353 18.309 16.8167 20.248 21.4676 20.2454H25.6719C25.7871 20.2455 25.8989 20.2082 25.9888 20.1397C26.0786 20.0712 26.1412 19.9756 26.166 19.8687L26.4591 18.622C26.4769 18.5472 26.477 18.4696 26.4594 18.3948C26.4417 18.3199 26.4068 18.2498 26.3571 18.1893C26.3074 18.1289 26.2442 18.0797 26.172 18.0454C26.0999 18.011 26.0206 17.9924 25.9399 17.9907C24.8902 17.9748 24.3765 17.744 23.3297 16.4655L17.9362 9.53183L24.9433 3.99337C25.884 3.2931 27.0314 3.09682 27.6679 3.01724L27.7293 3.01194C27.8379 3.00208 27.9404 2.95982 28.0222 2.8912C28.1039 2.82259 28.1607 2.73114 28.1844 2.62997L28.4719 1.39921C28.4882 1.32795 28.4874 1.25413 28.4697 1.18318C28.452 1.11223 28.4178 1.04595 28.3696 0.989207C28.3214 0.932468 28.2605 0.886712 28.1912 0.855301C28.122 0.823889 28.0462 0.807621 27.9694 0.807693H19.5386C19.4131 0.808337 19.2915 0.849325 19.1937 0.92398C19.0959 0.998635 19.0275 1.10256 18.9998 1.21884L18.715 2.43899C18.6844 2.56992 18.7071 2.70701 18.7786 2.82266C18.8501 2.93831 18.965 3.02395 19.1003 3.06234C19.5972 3.24536 19.7061 3.69894 19.2762 4.03316L12.0932 9.70424L13.3215 4.36207C13.405 4.0548 13.5719 3.77375 13.8056 3.54704C14.0393 3.32034 14.3316 3.15594 14.6531 3.07029L14.7229 3.04907C14.8163 3.02137 14.9004 2.97072 14.9665 2.90225C15.0327 2.83378 15.0787 2.74992 15.0998 2.65915L15.3957 1.3939C15.412 1.3237 15.4115 1.25092 15.3943 1.18092C15.377 1.11093 15.3434 1.04551 15.296 0.989495C15.2486 0.933483 15.1885 0.888306 15.1202 0.857299C15.052 0.826292 14.9773 0.810246 14.9016 0.810346L5.64442 0.807693ZM30.4345 0.807693C30.3083 0.808353 30.186 0.849623 30.0877 0.92477C29.9893 0.999916 29.9207 1.10451 29.8929 1.22149L29.5942 2.50265C29.5656 2.62304 29.5844 2.74922 29.6472 2.85727C29.71 2.96532 29.8123 3.04772 29.9348 3.08886L29.9906 3.11008C30.5601 3.31432 31.3501 3.83687 31.0068 5.12069L27.6288 19.6565C27.6121 19.7272 27.6123 19.8007 27.6295 19.8713C27.6467 19.942 27.6804 20.008 27.7281 20.0646C27.7758 20.1212 27.8364 20.1668 27.9052 20.1981C27.9741 20.2294 28.0494 20.2455 28.1258 20.2454H35.8782C36.1183 20.2454 36.3249 20.0862 36.3779 19.866L36.7129 18.4151C36.737 18.3118 36.7229 18.2038 36.6731 18.1091C36.6233 18.0145 36.5408 17.939 36.4394 17.8952C36.4141 17.884 36.389 17.8725 36.364 17.8607C35.8727 17.6326 35.1412 17.1048 35.3869 16.0836C35.412 15.9509 36.1407 12.7944 36.1407 12.7944H42.7346C42.9747 12.7944 43.1813 12.6353 43.2371 12.4151L43.854 9.7626C43.8713 9.69111 43.8714 9.61681 43.8541 9.54531C43.8368 9.47381 43.8028 9.40695 43.7544 9.34977C43.706 9.29259 43.6447 9.24656 43.5749 9.21515C43.5051 9.18375 43.4287 9.16777 43.3515 9.16844H36.9865L38.1786 4.02255L42.6229 4.01459C44.0606 4.01459 44.4989 4.73077 44.4152 5.94562L44.4096 6.00928C44.4013 6.07767 44.4084 6.14695 44.4303 6.21257C44.4522 6.27819 44.4885 6.33866 44.5367 6.39001C44.5849 6.44136 44.6441 6.48244 44.7102 6.51054C44.7764 6.53864 44.848 6.55313 44.9205 6.55305H46.5592C46.7993 6.55305 47.0058 6.3939 47.0561 6.17109L48.1728 1.39655C48.1885 1.32548 48.1874 1.25195 48.1695 1.18134C48.1516 1.11072 48.1173 1.0448 48.0692 0.988375C48.021 0.931951 47.9602 0.88645 47.8912 0.855192C47.8222 0.823934 47.7467 0.807706 47.6703 0.807693H30.4345Z" fill="#8F90A6"/>
</svg>
