<?xml version="1.0" encoding="utf-8"?>
<!-- Generator: Adobe Illustrator 27.8.1, SVG Export Plug-In . SVG Version: 6.00 Build 0)  -->
<svg version="1.1" id="Layer_1" xmlns="http://www.w3.org/2000/svg" xmlns:xlink="http://www.w3.org/1999/xlink" x="0px" y="0px"
	 viewBox="0 0 195 38" style="enable-background:new 0 0 195 38;" xml:space="preserve">
<style type="text/css">
	.st0{fill:#1A1D4B;}
	.st1{fill:#0A0C16;}
	.st2{fill:url(#SVGID_1_);}
	.st3{fill:url(#SVGID_00000081633216647048639770000009370445310412838309_);}
</style>
<g>
	<g>
		<g>
			<g>
				<g>
					<path class="st0" d="M54.1,9.6h5.2V13c1.5-2,3.4-3.9,6.9-3.9c3.3,0,5.6,1.6,6.8,4c1.8-2.4,4.2-4,7.7-4c5,0,8,3.1,8,8.7v14.5
						h-5.2V19.4c0-3.6-1.7-5.6-4.6-5.6c-2.8,0-4.9,2-4.9,5.6v12.8h-5.2V19.3c0-3.5-1.7-5.5-4.6-5.5c-2.9,0-4.9,2.1-4.9,5.7v12.8
						h-5.2L54.1,9.6L54.1,9.6z"/>
					<path class="st0" d="M90.2,21.1V21c0-6.5,5.2-11.9,12.1-11.9s12.1,5.3,12.1,11.8V21c0,6.5-5.2,11.8-12.2,11.8
						C95.4,32.8,90.2,27.5,90.2,21.1z M109.2,21.1V21c0-4-2.9-7.3-7-7.3c-4.2,0-6.8,3.3-6.8,7.2V21c0,3.9,2.9,7.3,6.9,7.3
						C106.6,28.3,109.2,25,109.2,21.1z"/>
					<path class="st0" d="M114.4,28.7l13.1-14.9h-12.6V9.6h19.3v3.6L121,28.1h13.1v4.2h-19.7L114.4,28.7L114.4,28.7z"/>
					<path class="st0" d="M145.2,1.3h5.2v31h-5.2V1.3z"/>
					<path class="st0" d="M152.5,21.1V21c0-6.5,5.2-11.9,12.1-11.9s12.1,5.3,12.1,11.8V21c0,6.5-5.2,11.8-12.2,11.8
						C157.6,32.8,152.5,27.5,152.5,21.1z M171.5,21.1V21c0-4-2.9-7.3-7-7.3c-4.2,0-6.8,3.3-6.8,7.2V21c0,3.9,2.9,7.3,6.9,7.3
						C168.9,28.3,171.5,25,171.5,21.1z"/>
				</g>
				<rect x="178.6" y="9.6" class="st0" width="5.2" height="22.7"/>
				<rect x="185.2" y="9.6" class="st0" width="5.6" height="5"/>
			</g>
			<g>
				<g>
					<path class="st1" d="M54.1,9.6h5.2V13c1.5-2,3.4-3.9,6.9-3.9c3.3,0,5.6,1.6,6.8,4c1.8-2.4,4.2-4,7.7-4c5,0,8,3.1,8,8.7v14.5
						h-5.2V19.4c0-3.6-1.7-5.6-4.6-5.6c-2.8,0-4.9,2-4.9,5.6v12.8h-5.2V19.3c0-3.5-1.7-5.5-4.6-5.5c-2.9,0-4.9,2.1-4.9,5.7v12.8
						h-5.2L54.1,9.6L54.1,9.6z"/>
					<path class="st1" d="M90.2,21.1V21c0-6.5,5.2-11.9,12.1-11.9s12.1,5.3,12.1,11.8V21c0,6.5-5.2,11.8-12.2,11.8
						C95.4,32.8,90.2,27.5,90.2,21.1z M109.2,21.1V21c0-4-2.9-7.3-7-7.3c-4.2,0-6.8,3.3-6.8,7.2V21c0,3.9,2.9,7.3,6.9,7.3
						C106.6,28.3,109.2,25,109.2,21.1z"/>
					<path class="st1" d="M114.4,28.7l13.1-14.9h-12.6V9.6h19.3v3.6L121,28.1h13.1v4.2h-19.7L114.4,28.7L114.4,28.7z"/>
					<path class="st1" d="M145.2,1.3h5.2v31h-5.2V1.3z"/>
					<path class="st1" d="M152.5,21.1V21c0-6.5,5.2-11.9,12.1-11.9s12.1,5.3,12.1,11.8V21c0,6.5-5.2,11.8-12.2,11.8
						C157.6,32.8,152.5,27.5,152.5,21.1z M171.5,21.1V21c0-4-2.9-7.3-7-7.3c-4.2,0-6.8,3.3-6.8,7.2V21c0,3.9,2.9,7.3,6.9,7.3
						C168.9,28.3,171.5,25,171.5,21.1z"/>
				</g>
				<rect x="178.6" y="9.6" class="st1" width="5.2" height="22.7"/>
				<rect x="185.2" y="9.6" class="st1" width="5.6" height="5"/>
			</g>
		</g>
		
			<linearGradient id="SVGID_1_" gradientUnits="userSpaceOnUse" x1="-4.1548" y1="536.2419" x2="59.5641" y2="594.2031" gradientTransform="matrix(1 0 0 1 0 -541.9991)">
			<stop  offset="0" style="stop-color:#1837A3"/>
			<stop  offset="0.3288" style="stop-color:#0F7D9D"/>
			<stop  offset="0.8534" style="stop-color:#00F492"/>
		</linearGradient>
		<path class="st2" d="M35.4,37c-1.7,0-3.3-0.6-4.7-1.9l-7.5-7l-7.5,7c-2,1.9-4.9,2.4-7.5,1.3c-2.6-1.1-4.1-3.5-4.1-6.3V8.3
			c0-2.8,1.6-5.2,4.1-6.3c2.6-1.1,5.4-0.6,7.5,1.3l7.5,7l7.5-7c2-1.9,4.9-2.4,7.5-1.3c2.6,1.1,4.1,3.5,4.1,6.3v21.8
			c0,2.8-1.6,5.2-4.1,6.3C37.3,36.8,36.4,37,35.4,37z M23.3,23c1,0,2,0.4,2.8,1.1l8,7.5c0.9,0.8,1.9,0.5,2.2,0.4
			c0.3-0.1,1.2-0.6,1.2-1.8V8.3c0-1.2-0.9-1.7-1.2-1.8C36,6.3,35,6,34.1,6.8l-8,7.5c-1.5,1.4-4,1.4-5.5,0l0,0l-8-7.5
			c-0.9-0.8-1.9-0.5-2.2-0.4c-0.3,0.1-1.2,0.6-1.2,1.8v21.8c0,1.2,0.9,1.7,1.2,1.8c0.3,0.1,1.3,0.5,2.2-0.4l8-7.5
			C21.3,23.4,22.3,23,23.3,23z M23.8,10.7L23.8,10.7L23.8,10.7z"/>
		<path class="st0" d="M136.4,9.6h5.2v22.7h-5.2V9.6L136.4,9.6z"/>
		<polyline class="st0" points="141.6,6.3 136.4,6.3 136.4,1.3 141.6,1.3 		"/>
	</g>
	<path class="st0" d="M54.1,9.6h5.2V13c1.5-2,3.4-3.9,6.9-3.9c3.3,0,5.6,1.6,6.8,4c1.8-2.4,4.2-4,7.7-4c5,0,8,3.1,8,8.7v14.5h-5.2
		V19.4c0-3.6-1.7-5.6-4.6-5.6c-2.8,0-4.9,2-4.9,5.6v12.8h-5.2V19.3c0-3.5-1.7-5.5-4.6-5.5c-2.9,0-4.9,2.1-4.9,5.7v12.8h-5.2
		L54.1,9.6L54.1,9.6z"/>
	<path class="st0" d="M90.2,21.1V21c0-6.5,5.2-11.9,12.1-11.9s12.1,5.3,12.1,11.8V21c0,6.5-5.2,11.8-12.2,11.8
		C95.4,32.8,90.2,27.5,90.2,21.1z M109.2,21.1V21c0-4-2.9-7.3-7-7.3c-4.2,0-6.8,3.3-6.8,7.2V21c0,3.9,2.9,7.3,6.9,7.3
		C106.6,28.3,109.2,25,109.2,21.1z"/>
	<path class="st0" d="M114.4,28.7l13.1-14.9h-12.6V9.6h19.3v3.6L121,28.1h13.1v4.2h-19.7L114.4,28.7L114.4,28.7z"/>
	<path class="st0" d="M145.2,1.3h5.2v31h-5.2V1.3z"/>
	<path class="st0" d="M152.5,21.1V21c0-6.5,5.2-11.9,12.1-11.9s12.1,5.3,12.1,11.8V21c0,6.5-5.2,11.8-12.2,11.8
		C157.6,32.8,152.5,27.5,152.5,21.1z M171.5,21.1V21c0-4-2.9-7.3-7-7.3c-4.2,0-6.8,3.3-6.8,7.2V21c0,3.9,2.9,7.3,6.9,7.3
		C168.9,28.3,171.5,25,171.5,21.1z"/>
	<rect x="178.6" y="9.6" class="st0" width="5.2" height="22.7"/>
	<rect x="185.2" y="9.6" class="st0" width="5.6" height="5"/>
	
		<linearGradient id="SVGID_00000080181727148265719550000004657539853425377214_" gradientUnits="userSpaceOnUse" x1="40.9829" y1="-1.1674" x2="3.1841" y2="40.1775" gradientTransform="matrix(1 0 0 -1 0 37.4002)">
		<stop  offset="0" style="stop-color:#2B2E80"/>
		<stop  offset="2.786741e-02" style="stop-color:#2A3585"/>
		<stop  offset="0.253" style="stop-color:#2267AC"/>
		<stop  offset="0.4652" style="stop-color:#1C8ECB"/>
		<stop  offset="0.6587" style="stop-color:#18ABE1"/>
		<stop  offset="0.8272" style="stop-color:#15BCEE"/>
		<stop  offset="0.9518" style="stop-color:#14C2F3"/>
	</linearGradient>
	<path style="fill:url(#SVGID_00000080181727148265719550000004657539853425377214_);" d="M38.2,2c2.5,1.1,4.1,3.5,4.1,6.3v21.8
		c0,2.8-1.6,5.2-4.1,6.3c-2.5,1.1-5.4,0.6-7.5-1.3l-7.5-7l-7.5,7c-2,1.9-4.9,2.4-7.5,1.3c-2.5-1.1-4.1-3.5-4.1-6.3V8.3
		c0-2.8,1.6-5.2,4.1-6.3c2.5-1.1,5.4-0.6,7.5,1.3l7.5,7l7.5-7c1.3-1.2,3-1.9,4.7-1.9C36.4,1.4,37.3,1.6,38.2,2z M20.5,14.3l-8-7.5
		c-0.9-0.8-1.9-0.5-2.2-0.4c-0.3,0.1-1.2,0.6-1.2,1.8v21.8c0,1.2,0.9,1.7,1.2,1.8c0.3,0.1,1.3,0.5,2.2-0.4l8-7.5l0,0
		c1.5-1.4,4-1.4,5.5,0l8,7.5c0.9,0.8,1.9,0.5,2.2,0.4c0.3-0.1,1.2-0.6,1.2-1.8V8.3c0-1.2-0.9-1.7-1.2-1.8C36,6.3,35,6,34.1,6.8
		l-8,7.5c-0.8,0.7-1.8,1.1-2.8,1.1C22.3,15.4,21.3,15,20.5,14.3z M23.8,27.7L23.8,27.7L23.8,27.7z"/>
	<path class="st0" d="M136.4,9.6h5.2v22.7h-5.2V9.6L136.4,9.6z"/>
	<polyline class="st0" points="141.6,6.3 136.4,6.3 136.4,1.3 141.6,1.3 	"/>
</g>
</svg>
