<svg width="118" height="33" viewBox="0 0 118 33" fill="none" xmlns="http://www.w3.org/2000/svg">
<path d="M11.3463 0.464712C10.9319 1.24455 5.34533 11.7694 2.9389 16.2915C2.8555 16.4478 2.86192 16.5609 2.94339 16.714C5.30107 21.1449 10.0793 30.1334 10.1287 30.2174C10.1781 30.1341 14.9563 21.1449 17.314 16.7147C17.3954 16.5615 17.4025 16.4485 17.3185 16.2921C15.9693 13.7652 14.6291 11.2332 13.2799 8.7063C13.1933 8.54478 13.1876 8.42396 13.2774 8.26114C13.6482 7.58791 14.0036 6.90628 14.3796 6.19945C14.4328 6.29055 18.0081 13.0119 19.7615 16.305C19.8352 16.4433 19.8417 16.5467 19.766 16.6895C16.9913 21.9041 14.2211 27.1213 11.4541 32.3405C11.3803 32.48 11.3053 32.5433 11.1372 32.5408C10.452 32.5291 9.76621 32.5324 9.08104 32.5388C8.95402 32.5401 8.88665 32.4994 8.82699 32.3857C6.0459 27.1407 3.26224 21.897 0.475373 16.6552C0.417634 16.546 0.412502 16.4646 0.472165 16.3516C3.25967 11.1085 6.04269 5.86478 8.8302 0.623006C8.86548 0.557104 8.94824 0.472465 9.00983 0.471819C9.77455 0.460836 10.5393 0.464712 11.3463 0.464712Z" fill="#8F90A6"/>
<path d="M14.5149 3.67551C13.2395 6.06929 9.72388 12.6827 7.80759 16.2847C7.72611 16.4385 7.72034 16.5515 7.80374 16.7073C9.15291 19.2348 10.4931 21.7662 11.8423 24.2931C11.9289 24.4552 11.9334 24.5754 11.8435 24.7382C11.4727 25.4114 11.1173 26.0931 10.7407 26.8006C10.6907 26.7153 7.11601 19.9933 5.35882 16.6937C5.28504 16.5554 5.27927 16.452 5.35497 16.3093C8.129 11.0953 10.8992 5.87805 13.6662 0.65889C13.7406 0.518687 13.8163 0.456662 13.9831 0.459247C14.6683 0.470877 15.3541 0.467646 16.0392 0.461185C16.1669 0.459893 16.233 0.501889 16.2933 0.614956C19.075 5.85996 21.8587 11.1037 24.6455 16.3454C24.7039 16.4546 24.7078 16.5367 24.6481 16.6491C21.8612 21.8909 19.0782 27.1346 16.2907 32.3764C16.2554 32.4423 16.1727 32.5262 16.1111 32.5269C15.3464 32.5372 14.5817 32.5334 13.7804 32.5334C13.833 32.43 19.4221 21.8954 22.1827 16.7066C22.2661 16.5502 22.2596 16.4372 22.1775 16.2841C19.8199 11.8531 15.0416 2.86466 14.9922 2.78131C14.9833 2.79682 14.8081 3.12439 14.5149 3.67551Z" fill="#8F90A6"/>
<path d="M34.0931 23.3125H31.4762V11.8607C31.4762 11.7148 31.4603 11.62 31.427 11.5734C31.3937 11.5267 31.3126 11.4771 31.1808 11.4246L30.4727 11.1475L30.6884 9.99823H37.2979C39.0024 9.99823 40.229 10.3249 40.9763 10.9783C41.7236 11.6317 42.0972 12.6862 42.0972 14.1388C42.0972 15.288 41.864 16.1733 41.3992 16.7932C40.9328 17.4145 40.2088 17.817 39.2254 18.0022L42.452 23.3125H39.5614L36.6303 18.2998H34.0931V23.3125ZM34.0931 16.3192H37.0039C37.9091 16.3192 38.5549 16.1544 38.9416 15.8233C39.3283 15.4937 39.5223 14.9322 39.5223 14.1388C39.5223 13.36 39.3283 12.8043 38.9416 12.4747C38.5549 12.1451 37.9091 11.9788 37.0039 11.9788H34.0931V16.3192Z" fill="#8F90A6"/>
<path d="M54.2356 9.9992V12.0206H47.3104V15.5676H52.8193V17.5088H47.3104V21.2935H54.392V23.3149H44.695V11.8631C44.695 11.7173 44.6791 11.6225 44.6458 11.5758C44.6124 11.5291 44.5313 11.4795 44.3996 11.427L43.6914 11.1499L43.9072 10.0007H54.2356V9.9992Z" fill="#8F90A6"/>
<path d="M56.5583 11.8607C56.5583 11.7148 56.5423 11.62 56.509 11.5734C56.4757 11.5267 56.3946 11.4771 56.2628 11.4246L55.5547 11.1475L55.7705 9.99823H58.7219C58.9188 9.99823 59.0462 10.0216 59.1056 10.0682C59.165 10.1149 59.2722 10.2432 59.43 10.4547L66.2176 19.7072V9.99969H68.6375V23.3125H66.1003L58.9796 13.605V23.3125H56.5597V11.8607H56.5583Z" fill="#8F90A6"/>
<path d="M77.9827 9.9992C78.2448 10.4747 78.5272 11.0464 78.8284 11.7129C79.1297 12.3794 79.441 13.1028 79.7625 13.8816C80.084 14.6619 80.4012 15.4728 80.7169 16.3187C81.0311 17.1646 81.3294 18.0032 81.6118 18.8345C81.8942 19.6658 82.1535 20.4665 82.3895 21.2322C82.6256 21.9979 82.8225 22.6921 82.9789 23.312H80.3432C80.1984 22.7709 80.0478 22.2415 79.8914 21.7266C79.7336 21.2118 79.5829 20.7028 79.4381 20.2011H73.615C73.4572 20.7028 73.3037 21.2118 73.153 21.7266C73.0024 22.2415 72.8547 22.7709 72.7099 23.312H70.0742C70.2321 22.6907 70.429 21.9979 70.6651 21.2322C70.9011 20.4665 71.1604 19.6673 71.4427 18.8345C71.7251 18.0017 72.0235 17.1631 72.3377 16.3187C72.652 15.4742 72.9706 14.6619 73.2921 13.8816C73.6136 13.1028 73.9249 12.3794 74.2261 11.7129C74.5274 11.0464 74.8098 10.4747 75.0719 9.9992H77.9827V9.9992ZM76.5258 12.3356C75.6859 14.2375 74.9256 16.2122 74.2435 18.2599H78.8082C78.1 16.2122 77.3397 14.2389 76.5258 12.3356Z" fill="#8F90A6"/>
<path d="M84.2966 11.8607C84.2966 11.7148 84.2792 11.62 84.2473 11.5734C84.214 11.5267 84.1329 11.4771 84.0011 11.4246L83.293 11.1475L83.5087 9.99823H86.7353C86.8526 9.99823 86.912 10.0639 86.912 10.1966V17.9031C86.912 19.1705 87.1813 20.082 87.7186 20.6377C88.2559 21.1919 89.1277 21.469 90.3355 21.469C91.5548 21.469 92.431 21.1919 92.9625 20.6377C93.4939 20.0834 93.7589 19.1719 93.7589 17.9031V9.99823H96.3758V18.1014C96.3758 19.0654 96.2614 19.8909 96.0311 20.5779C95.8023 21.2648 95.4446 21.8292 94.9595 22.2711C94.4743 22.713 93.8473 23.0368 93.0812 23.2425C92.3137 23.4466 91.3999 23.5487 90.3369 23.5487C89.2739 23.5487 88.3601 23.4466 87.5926 23.2425C86.8251 23.0383 86.1995 22.7145 85.7143 22.2711C85.2292 21.8292 84.8715 21.2648 84.6427 20.5779C84.4124 19.8909 84.298 19.0654 84.298 18.1014V11.8607H84.2966Z" fill="#8F90A6"/>
<path d="M99.4059 11.8607C99.4059 11.7148 99.39 11.62 99.3567 11.5734C99.3234 11.5267 99.2423 11.4771 99.1105 11.4246L98.4023 11.1475L98.6181 9.99823H101.845C101.962 9.99823 102.021 10.0639 102.021 10.1966V21.291H108.06V23.3125H99.4045V11.8607H99.4059Z" fill="#8F90A6"/>
<path d="M110.891 12.0196H106.602V9.99823H117.796V12.0196H113.508V23.3125H110.891V12.0196Z" fill="#8F90A6"/>
</svg>
