<svg width="149" height="25" viewBox="0 0 149 25" fill="none" xmlns="http://www.w3.org/2000/svg">
<path fill-rule="evenodd" clip-rule="evenodd" d="M17.7281 23.4519C15.7646 22.2225 14.3187 17.9803 14.3187 12.9388C14.3187 12.7537 14.3187 12.5717 14.3238 12.3887C8.86435 11.5304 4.92003 9.18053 4.81834 6.40049L4.80208 6.43303C3.46697 8.09251 2.70434 10.0123 2.70434 12.0572C2.70434 18.0748 9.31379 23.0065 17.6895 23.4458L17.7251 23.4529L17.7281 23.4519ZM0.183594 12.4995C0.183594 5.76599 8.56336 0.306576 18.9005 0.306576C29.2377 0.306576 37.6185 5.76599 37.6185 12.4995C37.6185 19.233 29.2377 24.6934 18.9005 24.6934C8.56336 24.6934 0.183594 19.233 0.183594 12.4995V12.4995ZM18.9005 2.06571C20.8966 2.06571 22.5937 5.09284 23.2231 9.31679V9.31068C27.1054 8.70058 29.8234 7.31158 29.8234 5.68972C29.8234 3.51267 24.9324 1.74947 18.8985 1.74947C12.8646 1.74947 7.9736 3.51267 7.9736 5.68972C7.9736 7.31158 10.6916 8.70566 14.5749 9.31068V9.31679C15.2043 5.09284 16.9014 2.06571 18.8965 2.06571H18.9005ZM20.1085 23.4447C28.4883 23.0095 35.0947 18.0779 35.0947 12.0561C35.0947 10.0113 34.3321 8.09048 32.996 6.43201L32.9797 6.39948C32.878 9.17952 28.9347 11.5294 23.4753 12.3876C23.4753 12.5707 23.4814 12.7527 23.4814 12.9378C23.4814 17.9792 22.0344 22.2215 20.073 23.4508L20.1065 23.4437L20.1085 23.4447ZM18.9005 9.63099C19.7954 9.63099 20.6637 9.59235 21.4955 9.51914C21.0817 6.81231 20.0719 4.90065 18.9016 4.90065C17.7312 4.90065 16.7225 6.81231 16.3076 9.51914C17.1394 9.59235 18.0088 9.63099 18.9026 9.63099H18.9005ZM18.9005 19.658C20.4034 19.658 21.6287 16.5313 21.6938 12.6093H21.7019C20.797 12.6927 19.8594 12.7364 18.9005 12.7364C17.9417 12.7364 17.0052 12.6927 16.0992 12.6093H16.1073C16.1724 16.5313 17.3987 19.658 18.9005 19.658Z" fill="#8F90A6"/>
<path fill-rule="evenodd" clip-rule="evenodd" d="M95.6914 12.499C95.6912 10.6556 96.2377 8.85342 97.2617 7.32055C98.2858 5.78767 99.7414 4.5929 101.445 3.88734C103.148 3.18178 105.022 2.99712 106.83 3.35671C108.638 3.71631 110.299 4.60401 111.602 5.90754C112.906 7.21108 113.793 8.8719 114.153 10.68C114.513 12.488 114.328 14.3621 113.622 16.0652C112.917 17.7683 111.722 19.224 110.189 20.248C108.656 21.2721 106.854 21.8186 105.011 21.8184C102.539 21.8184 100.169 20.8365 98.421 19.0888C96.6733 17.3411 95.6914 14.9707 95.6914 12.499V12.499ZM105.011 18.3967C107.885 18.3967 110.215 15.7529 110.215 12.499C110.215 9.24515 107.885 6.60137 105.011 6.60137C102.136 6.60137 99.8086 9.24515 99.8086 12.499C99.8086 15.7529 102.137 18.3967 105.011 18.3967Z" fill="#8F90A6"/>
<path fill-rule="evenodd" clip-rule="evenodd" d="M124.905 7.06185V21.3952H120.979V7.06185H120.992H115.5V3.8222H130.382V7.06185H124.918H124.905Z" fill="#8F90A6"/>
<path fill-rule="evenodd" clip-rule="evenodd" d="M135.135 17.4409L133.629 21.3913H129.043L136.293 3.81829H141.18L148.43 21.3913H143.844L142.337 17.4409H135.135ZM138.733 14.4748H141.202L138.75 8.04224H138.715L136.263 14.4737H138.733V14.4748Z" fill="#8F90A6"/>
<path fill-rule="evenodd" clip-rule="evenodd" d="M52.5258 7.06185V21.3952H48.5988V7.06185H48.613H43.1211V3.8222H58.0036V7.06185H52.5401H52.5258Z" fill="#8F90A6"/>
<path fill-rule="evenodd" clip-rule="evenodd" d="M59.0039 12.499C59.0037 10.6556 59.5502 8.85351 60.5742 7.32065C61.5982 5.78779 63.0538 4.59303 64.7568 3.88744C66.4599 3.18185 68.3339 2.99712 70.1419 3.35664C71.95 3.71615 73.6108 4.60375 74.9144 5.90718C76.2179 7.21061 77.1057 8.87134 77.4654 10.6793C77.8251 12.4873 77.6406 14.3614 76.9352 16.0645C76.2298 17.7677 75.0352 19.2234 73.5025 20.2475C71.9697 21.2717 70.1677 21.8184 68.3242 21.8184C67.1003 21.8185 65.8884 21.5775 64.7576 21.1093C63.6268 20.641 62.5993 19.9546 61.7338 19.0892C60.8683 18.2238 60.1818 17.1964 59.7134 16.0656C59.245 14.9349 59.0039 13.723 59.0039 12.499V12.499ZM68.3242 18.3967C71.1978 18.3967 73.5284 15.7529 73.5284 12.499C73.5284 9.24515 71.1978 6.60137 68.3242 6.60137C65.4507 6.60137 63.1201 9.24515 63.1201 12.499C63.1201 15.7529 65.4507 18.3967 68.3242 18.3967Z" fill="#8F90A6"/>
<path fill-rule="evenodd" clip-rule="evenodd" d="M86.6706 21.3952H88.6605V14.8051V14.7227L95.512 3.8222H90.926L86.6706 11.2085L82.4141 3.8222H77.8281L84.6796 14.7227V14.8051V21.3952H86.6706Z" fill="#8F90A6"/>
</svg>
