<svg width="220" height="25" viewBox="0 0 220 25" fill="none" xmlns="http://www.w3.org/2000/svg">
<g clip-path="url(#clip0_444_11275)">
<path d="M92.9599 6.93555L89.2463 16.4335L84.7642 6.93555H82.183L78.015 16.6485L74.2147 6.93555H69.3145L76.9693 24.9748L78.4957 24.9772L83.4261 14.3191L88.3806 24.9841H89.9071L97.592 6.93555H92.9599Z" fill="#17449C"/>
<path d="M113.519 17.0783L101.449 17.0691C101.748 18.2291 102.322 19.1235 103.164 19.7544C104.008 20.3853 105.055 20.6996 106.302 20.6996C107.991 20.6996 109.587 20.0849 111.089 18.8532L113.029 22.2595C110.994 24.0851 108.703 24.9957 106.161 24.9933C103.457 24.991 101.213 24.0713 99.4335 22.2317C97.6532 20.3923 96.7656 18.116 96.7656 15.4006C96.7679 12.7106 97.6313 10.4413 99.3551 8.59248C101.079 6.74372 103.212 5.81934 105.756 5.81934C108.138 5.82165 110.08 6.63742 111.581 8.26665C113.083 9.89589 113.833 11.9203 113.831 14.3398C113.833 15.2273 113.727 16.1424 113.519 17.0783ZM102.978 10.8526C102.237 11.5182 101.728 12.4195 101.449 13.5541L109.288 13.5588C109.266 12.4241 108.896 11.5228 108.179 10.8549C107.462 10.187 106.596 9.8543 105.578 9.8543C104.587 9.8543 103.718 10.187 102.978 10.8526Z" fill="#17449C"/>
<path d="M131.294 8.5575C132.853 10.3716 133.632 12.6617 133.63 15.4256C133.628 18.1895 132.846 20.4774 131.285 22.2915C129.724 24.1033 127.728 25.0092 125.3 25.0092C122.872 25.0069 121.034 24.094 119.787 22.2661L119.785 24.5608L115.484 24.5586L115.502 0L120.183 0.00231095L120.177 8.01439C121.403 6.55849 123.115 5.83286 125.311 5.83286C127.74 5.83517 129.735 6.74337 131.294 8.5575ZM127.611 19.0677C128.455 18.1433 128.877 16.9162 128.88 15.3864C128.88 13.8819 128.453 12.6664 127.597 11.7397C126.742 10.813 125.69 10.3508 124.443 10.3485C123.241 10.3485 122.216 10.7852 121.372 11.6611C120.528 12.537 120.105 13.7895 120.103 15.4164C120.103 17.0687 120.53 18.3236 121.385 19.174C122.24 20.0267 123.258 20.452 124.436 20.4543C125.707 20.4543 126.766 19.9944 127.611 19.0677Z" fill="#17449C"/>
<path d="M161.398 8.61805C163.2 10.4576 164.1 12.7223 164.099 15.4122C164.096 18.1022 163.193 20.3715 161.389 22.2227C159.586 24.0737 157.398 24.9958 154.833 24.9935C152.267 24.9912 150.099 24.0714 148.33 22.2319C146.563 20.3924 145.68 18.1161 145.68 15.4007C145.682 12.7108 146.572 10.446 148.354 8.60881C150.136 6.77159 152.31 5.85414 154.876 5.85645C157.423 5.85645 159.595 6.77621 161.398 8.61805ZM151.684 11.8302C150.85 12.7801 150.435 13.9818 150.433 15.4377C150.433 16.8936 150.848 18.0837 151.68 19.0104C152.512 19.9371 153.575 20.3993 154.869 20.4016C156.141 20.4016 157.2 19.9348 158.044 18.9965C158.889 18.0583 159.311 16.8751 159.313 15.4446C159.315 14.0141 158.893 12.8171 158.049 11.8534C157.204 10.8897 156.147 10.409 154.876 10.4067C153.581 10.4067 152.516 10.8805 151.684 11.8302Z" fill="#17449C"/>
<path d="M165.895 24.3466L170.417 24.3488L170.426 11.5046L174.077 11.5068L174.08 7.39895L170.428 7.39673L170.429 7.17528C170.429 6.18096 170.677 5.47897 171.168 5.06485C171.66 4.65074 172.419 4.44479 173.446 4.44479C173.676 4.44479 173.921 4.45808 174.18 4.48244L174.182 0.372302C173.584 0.228359 172.959 0.15528 172.31 0.15528C170.323 0.153065 168.758 0.702264 167.618 1.80066C166.478 2.89906 165.907 4.54887 165.907 6.74788L165.895 24.3466Z" fill="#17449C"/>
<path d="M175.688 24.3466L180.21 24.3488L180.219 11.5046L183.87 11.5068L183.873 7.39895L180.221 7.39673L180.222 7.17528C180.222 6.18096 180.469 5.47897 180.961 5.06485C181.453 4.65074 182.212 4.44479 183.239 4.44479C183.469 4.44479 183.714 4.45808 183.973 4.48244L183.975 0.372302C183.377 0.228359 182.752 0.15528 182.103 0.15528C180.116 0.153065 178.551 0.702264 177.411 1.80066C176.271 2.89906 175.7 4.54887 175.7 6.74788L175.688 24.3466Z" fill="#17449C"/>
<path d="M140.039 10.3554L140.035 17.8243C140.035 18.862 140.288 19.5946 140.797 20.0267C141.306 20.4589 142.092 20.6761 143.155 20.6761C143.571 20.6761 144.034 20.6391 144.543 20.5652L144.54 24.748C143.731 25.0184 142.875 25.1547 141.975 25.1524C139.917 25.1501 138.298 24.577 137.12 23.4284C135.942 22.2799 135.353 20.5582 135.355 18.2634L135.359 10.3508L135.361 6.13093L135.364 0.0253906L140.046 0.0277016L140.043 6.13325L140.039 10.3554Z" fill="#17449C"/>
<path d="M141.266 6.97949L145.228 6.9818L145.226 11.2016L141.264 11.1993L141.266 6.97949Z" fill="#17449C"/>
<path d="M201.898 17.1402L189.828 17.131C190.127 18.2911 190.701 19.1854 191.543 19.8163C192.388 20.4472 193.434 20.7614 194.681 20.7614C196.37 20.7614 197.966 20.1467 199.469 18.915L201.409 22.3214C199.373 24.1471 197.082 25.0576 194.54 25.0552C191.836 25.053 189.592 24.1332 187.812 22.2936C186.032 20.4541 185.145 18.1778 185.145 15.4624C185.147 12.7725 186.009 10.5031 187.732 8.65205C189.456 6.80329 191.589 5.87891 194.133 5.87891C196.514 5.88122 198.457 6.69699 199.958 8.32622C201.461 9.95546 202.21 11.9799 202.207 14.3994C202.212 15.2891 202.108 16.202 201.898 17.1402ZM191.359 10.9145C190.619 11.5801 190.11 12.4813 189.83 13.616L197.669 13.6206C197.648 12.4859 197.277 11.5847 196.56 10.9168C195.843 10.2489 194.977 9.91614 193.96 9.91614C192.966 9.91614 192.099 10.2489 191.359 10.9145Z" fill="#17449C"/>
<path d="M219.977 17.1519L207.907 17.1426C208.205 18.3028 208.779 19.1971 209.621 19.828C210.466 20.4589 211.512 20.7732 212.759 20.7732C214.448 20.7732 216.044 20.1585 217.547 18.9267L219.487 22.3331C217.451 24.1587 215.161 25.0692 212.619 25.067C209.914 25.0646 207.671 24.1448 205.891 22.3054C204.111 20.4658 203.223 18.1895 203.223 15.4742C203.225 12.7842 204.087 10.5148 205.811 8.66378C207.534 6.81501 209.667 5.89062 212.211 5.89062C214.593 5.89294 216.536 6.70871 218.036 8.33795C219.539 9.96719 220.288 11.9916 220.286 14.4111C220.29 15.3008 220.184 16.2137 219.977 17.1519ZM209.435 10.9262C208.695 11.5917 208.186 12.493 207.907 13.6277L215.745 13.6323C215.723 12.4976 215.354 11.5964 214.636 10.9285C213.92 10.2607 213.053 9.92788 212.036 9.92788C211.044 9.92788 210.176 10.2607 209.435 10.9262Z" fill="#17449C"/>
<path d="M47.4225 23.5928C47.4225 24.3663 46.8284 25.0003 46.1037 25.0003H36.9087C36.184 25.0003 35.5898 24.3663 35.5898 23.5928V13.7796C35.5898 13.0062 36.184 12.3721 36.9087 12.3721H46.1037C46.8284 12.3721 47.4225 13.0062 47.4225 13.7796V23.5928Z" fill="#07BFDD"/>
<path d="M59.405 11.2208C59.405 11.9942 58.8108 12.6283 58.0861 12.6283H48.8911C48.1664 12.6283 47.5723 11.9942 47.5723 11.2208V1.40754C47.5723 0.634087 48.1664 0 48.8911 0H58.0861C58.8108 0 59.405 0.634087 59.405 1.40754V11.2208Z" fill="#007FFF"/>
<path d="M23.7975 23.5928C23.7975 24.3663 23.2033 25.0004 22.4787 25.0004H13.2836C12.5589 25.0004 11.9648 24.3663 11.9648 23.5928V13.7796C11.9648 13.0062 12.5589 12.3721 13.2836 12.3721H22.4787C23.2033 12.3721 23.7975 13.0062 23.7975 13.7796V23.5928Z" fill="#1DA5F8"/>
<path d="M11.8327 11.2218C11.8327 11.9952 11.2385 12.6293 10.5138 12.6293H1.31885C0.594136 12.6293 0 11.9975 0 11.2218V1.40851C0 0.635063 0.594136 0.000976562 1.31885 0.000976562H10.5138C11.2385 0.000976562 11.8327 0.635063 11.8327 1.40851V11.2218Z" fill="#8CC936"/>
</g>
<defs>
<clipPath id="clip0_444_11275">
<rect width="220" height="25" fill="white"/>
</clipPath>
</defs>
</svg>
